<svg width="760" height="235" viewBox="0 0 760 235" fill="none" xmlns="http://www.w3.org/2000/svg" role="img" aria-labelledby="title desc">
  <title id="title">WineChord's GitHub Stats</title>
  <desc id="desc">A daily static snapshot of verified GitHub profile statistics. Rank A+, top 5.4 percent.</desc>
  <style>
    .title { font: 600 20px "Segoe UI", Ubuntu, sans-serif; fill: #539bf5; }
    .label { font: 400 13px "Segoe UI", Ubuntu, sans-serif; fill: #768390; }
    .value { font: 600 14px "Segoe UI", Ubuntu, sans-serif; fill: #adbac7; }
    .rank-label { font: 600 11px "Segoe UI", Ubuntu, sans-serif; fill: #768390; letter-spacing: 1px; }
    .rank { font: 700 25px "Segoe UI", Ubuntu, sans-serif; fill: #539bf5; }
    .rank-percentile { font: 400 11px "Segoe UI", Ubuntu, sans-serif; fill: #768390; }
    .footer { font: 400 11px "Segoe UI", Ubuntu, sans-serif; fill: #636e7b; }
  </style>
  <rect x="0.5" y="0.5" width="759" height="234" rx="8" fill="#22272e" stroke="#444c56"/>
  <text x="28" y="38" class="title">WineChord's GitHub Stats</text>
  <path d="M28 55.5H732" stroke="#373e47"/>
  <circle cx="32" cy="83" r="3" fill="#539bf5"/><text x="46" y="88" class="label">Public repositories</text><text x="307" y="88" class="value" text-anchor="end">86</text><circle cx="32" cy="117" r="3" fill="#539bf5"/><text x="46" y="122" class="label">Stars earned</text><text x="307" y="122" class="value" text-anchor="end">3,125</text><circle cx="32" cy="151" r="3" fill="#539bf5"/><text x="46" y="156" class="label">Repository forks</text><text x="307" y="156" class="value" text-anchor="end">490</text><circle cx="32" cy="185" r="3" fill="#539bf5"/><text x="46" y="190" class="label">Followers</text><text x="307" y="190" class="value" text-anchor="end">25</text>
  <circle cx="327" cy="83" r="3" fill="#539bf5"/><text x="341" y="88" class="label">Commits authored (last year)</text><text x="602" y="88" class="value" text-anchor="end">2,512</text><circle cx="327" cy="117" r="3" fill="#539bf5"/><text x="341" y="122" class="label">Pull requests authored</text><text x="602" y="122" class="value" text-anchor="end">726</text><circle cx="327" cy="151" r="3" fill="#539bf5"/><text x="341" y="156" class="label">Issues authored</text><text x="602" y="156" class="value" text-anchor="end">44</text><circle cx="327" cy="185" r="3" fill="#539bf5"/><text x="341" y="190" class="label">Pull requests reviewed</text><text x="602" y="190" class="value" text-anchor="end">1,134</text>
  <path d="M617 72V194" stroke="#373e47"/>
  <text x="686" y="79" class="rank-label" text-anchor="middle">RANK</text>
  <circle cx="686" cy="131" r="44" stroke="#373e47" stroke-width="8"/>
  <circle cx="686" cy="131" r="44" stroke="#539bf5" stroke-width="8" stroke-linecap="round" stroke-dasharray="276.46" stroke-dashoffset="14.88" transform="rotate(-90 686 131)"/>
  <text x="686" y="140" class="rank" text-anchor="middle">A+</text>
  <text x="686" y="194" class="rank-percentile" text-anchor="middle">Top 5.4%</text>
  <path d="M28 207.5H732" stroke="#373e47"/>
  <text x="28" y="224" class="footer">Updated daily · 2026-07-24 05:32 UTC</text>
</svg>
